<svg xmlns="http://www.w3.org/2000/svg" viewBox="0 0 320 240">
  <!-- Diseño de oficina pixelart (320x240 pixeles = 10x8 celdas de 32px) -->
  
  <!-- Fondo/Suelo -->
  <rect width="320" height="240" fill="#1a1a2e" />
  <rect y="48" width="320" height="192" fill="#2a2a4a" />
  
  <!-- Paredes -->
  <rect width="320" height="48" fill="#3a3a5a" />
  <rect width="32" height="240" fill="#3a3a5a" />
  <rect x="288" width="32" height="240" fill="#3a3a5a" />
  
  <!-- Escritorios -->
  <!-- Escritorio 1 -->
  <rect x="64" y="80" width="64" height="16" fill="#5a3a2a" />
  <rect x="64" y="96" width="16" height="16" fill="#5a3a2a" />
  <rect x="112" y="96" width="16" height="16" fill="#5a3a2a" />
  
  <!-- Escritorio 2 -->
  <rect x="192" y="80" width="64" height="16" fill="#5a3a2a" />
  <rect x="192" y="96" width="16" height="16" fill="#5a3a2a" />
  <rect x="240" y="96" width="16" height="16" fill="#5a3a2a" />
  
  <!-- Computadoras -->
  <!-- Monitor 1 -->
  <rect x="80" y="64" width="32" height="16" fill="#333333" />
  <rect x="84" y="68" width="24" height="8" fill="#3366FF" />
  <!-- Teclado 1 -->
  <rect x="80" y="80" width="32" height="4" fill="#666666" />
  
  <!-- Monitor 2 -->
  <rect x="208" y="64" width="32" height="16" fill="#333333" />
  <rect x="212" y="68" width="24" height="8" fill="#3366FF" />
  <!-- Teclado 2 -->
  <rect x="208" y="80" width="32" height="4" fill="#666666" />
  
  <!-- Elementos decorativos -->
  <!-- Planta -->
  <rect x="32" y="176" width="16" height="16" fill="#225500" />
  <rect x="36" y="160" width="8" height="16" fill="#338800" />
  
  <!-- Servidor en la pared -->
  <rect x="256" y="144" width="16" height="32" fill="#444444" />
  <rect x="258" y="148" width="2" height="2" fill="#33FF33" />
  <rect x="258" y="154" width="2" height="2" fill="#FF3333" />
  <rect x="258" y="160" width="2" height="2" fill="#3366FF" />
  
  <!-- Ventana -->
  <rect x="128" y="16" width="64" height="32" fill="#66CCFF" />
  <rect x="128" y="16" width="64" height="4" fill="#777777" />
  <rect x="128" y="16" width="4" height="32" fill="#777777" />
  <rect x="188" y="16" width="4" height="32" fill="#777777" />
  <rect x="128" y="44" width="64" height="4" fill="#777777" />
  <rect x="160" y="16" width="4" height="32" fill="#777777" />
</svg>