<svg xmlns="http://www.w3.org/2000/svg" viewBox="0 0 32 32">
  <!-- Cuerpo del personaje (32x32 pixeles) -->
  
  <!-- Cabeza -->
  <rect x="10" y="4" width="12" height="12" fill="#FFB266" />
  
  <!-- Cabello -->
  <rect x="10" y="4" width="12" height="3" fill="#663300" />
  <rect x="10" y="4" width="2" height="8" fill="#663300" />
  
  <!-- Ojos -->
  <rect x="13" y="8" width="2" height="2" fill="#000000" />
  <rect x="17" y="8" width="2" height="2" fill="#000000" />
  
  <!-- Boca -->
  <rect x="14" y="12" width="4" height="1" fill="#CC3333" />
  
  <!-- Cuerpo -->
  <rect x="12" y="16" width="8" height="10" fill="#3366CC" />
  
  <!-- Brazos -->
  <rect x="8" y="16" width="4" height="2" fill="#3366CC" />
  <rect x="20" y="16" width="4" height="2" fill="#3366CC" />
  <rect x="8" y="18" width="2" height="4" fill="#FFB266" />
  <rect x="22" y="18" width="2" height="4" fill="#FFB266" />
  
  <!-- Piernas -->
  <rect x="12" y="26" width="3" height="6" fill="#333333" />
  <rect x="17" y="26" width="3" height="6" fill="#333333" />
  
  <!-- Detalles: Insignia DevOps -->
  <rect x="14" y="18" width="4" height="2" fill="#FF6633" />
  
  <!-- Gafas (opcional) -->
  <rect x="12" y="8" width="8" height="1" fill="#555555" />
</svg>